<?xml version="1.0" standalone="no"?><svg xmlns="http://www.w3.org/2000/svg" viewBox="0 0 1440 320"><path fill="#00cba9" fill-opacity="1" d="M0,288L8,277.3C16,267,32,245,48,234.7C64,224,80,224,96,234.7C112,245,128,267,144,261.3C160,256,176,224,192,186.7C208,149,224,107,240,128C256,149,272,235,288,277.3C304,320,320,320,336,272C352,224,368,128,384,106.7C400,85,416,139,432,138.7C448,139,464,85,480,85.3C496,85,512,139,528,149.3C544,160,560,128,576,112C592,96,608,96,624,117.3C640,139,656,181,672,213.3C688,245,704,267,720,229.3C736,192,752,96,768,64C784,32,800,64,816,85.3C832,107,848,117,864,133.3C880,149,896,171,912,154.7C928,139,944,85,960,64C976,43,992,53,1008,74.7C1024,96,1040,128,1056,122.7C1072,117,1088,75,1104,64C1120,53,1136,75,1152,117.3C1168,160,1184,224,1200,240C1216,256,1232,224,1248,202.7C1264,181,1280,171,1296,181.3C1312,192,1328,224,1344,224C1360,224,1376,192,1392,160C1408,128,1424,96,1432,80L1440,64L1440,0L1432,0C1424,0,1408,0,1392,0C1376,0,1360,0,1344,0C1328,0,1312,0,1296,0C1280,0,1264,0,1248,0C1232,0,1216,0,1200,0C1184,0,1168,0,1152,0C1136,0,1120,0,1104,0C1088,0,1072,0,1056,0C1040,0,1024,0,1008,0C992,0,976,0,960,0C944,0,928,0,912,0C896,0,880,0,864,0C848,0,832,0,816,0C800,0,784,0,768,0C752,0,736,0,720,0C704,0,688,0,672,0C656,0,640,0,624,0C608,0,592,0,576,0C560,0,544,0,528,0C512,0,496,0,480,0C464,0,448,0,432,0C416,0,400,0,384,0C368,0,352,0,336,0C320,0,304,0,288,0C272,0,256,0,240,0C224,0,208,0,192,0C176,0,160,0,144,0C128,0,112,0,96,0C80,0,64,0,48,0C32,0,16,0,8,0L0,0Z"></path></svg>